<svg width="26" height="23" viewBox="0 0 26 23" fill="none" xmlns="http://www.w3.org/2000/svg">
<g clip-path="url(#clip0_2020_12207)">
<path d="M24.75 11.62V16.2C24.75 19.51 22.07 22.2 18.75 22.2H6.75C3.44 22.2 0.75 19.51 0.75 16.2V11.62C0.75 8.31 3.44 5.62 6.75 5.62H7.57V4.19C7.57 2.29 9.11 0.75 11.01 0.75H15.14C17.04 0.75 18.57 2.29 18.57 4.19V5.62H18.75C22.07 5.62 24.75 8.31 24.75 11.62Z" stroke="#6C69FF" stroke-width="2" stroke-linecap="round" stroke-linejoin="round"/>
<path d="M12.75 18.2001C15.1193 18.2001 17.04 16.2794 17.04 13.9101C17.04 11.5408 15.1193 9.62012 12.75 9.62012C10.3807 9.62012 8.45996 11.5408 8.45996 13.9101C8.45996 16.2794 10.3807 18.2001 12.75 18.2001Z" stroke="#6C69FF" stroke-width="2" stroke-linecap="round" stroke-linejoin="round"/>
<path d="M15.22 2.75977H14.54C13.9878 2.75977 13.54 3.20748 13.54 3.75977V4.43977C13.54 4.99205 13.9878 5.43977 14.54 5.43977H15.22C15.7723 5.43977 16.22 4.99205 16.22 4.43977V3.75977C16.22 3.20748 15.7723 2.75977 15.22 2.75977Z" fill="#6C69FF"/>
</g>
<defs>
<clipPath id="clip0_2020_12207">
<rect width="25.5" height="22.95" fill="white"/>
</clipPath>
</defs>
</svg>
