<svg width="31" height="28" viewBox="0 0 31 28" fill="none" xmlns="http://www.w3.org/2000/svg">
<g clip-path="url(#clip0_1260_4412)">
<path d="M15.1332 0C6.77391 0 0 5.35412 0 11.9624C0 16.2617 2.87025 20.0335 7.17869 22.1402C6.86284 23.3208 6.03182 26.421 5.86623 27.0834C5.66077 27.9052 6.16674 27.896 6.49793 27.6752C6.75858 27.5004 10.6438 24.8571 12.3212 23.7194C13.232 23.8544 14.1703 23.9249 15.1301 23.9249C23.4864 23.9249 30.2633 18.5708 30.2633 11.9624C30.2633 5.35412 23.4894 0 15.1332 0Z" fill="#371D1E"/>
<path d="M4.57511 9.76074H6.1329C6.1329 9.76074 6.1421 14.0385 6.1329 15.0351C6.1329 15.7619 7.75201 15.7711 7.75201 15.0443L7.75815 9.81593C7.75815 9.81593 8.27945 9.819 9.30673 9.819C10.2757 9.819 10.2757 8.29495 9.30673 8.29495C8.21506 8.29495 4.56898 8.26428 4.56898 8.26428C3.65516 8.26428 3.65823 9.75767 4.56898 9.75767" fill="#FAE100"/>
<mask id="mask0_1260_4412" style="mask-type:luminance" maskUnits="userSpaceOnUse" x="3" y="8" width="8" height="8">
<path d="M4.57511 9.76074H6.1329C6.1329 9.76074 6.1421 14.0385 6.1329 15.0351C6.1329 15.7619 7.75201 15.7711 7.75201 15.0443L7.75815 9.81593C7.75815 9.81593 8.27945 9.819 9.30673 9.819C10.2757 9.819 10.2757 8.29495 9.30673 8.29495C8.21506 8.29495 4.56898 8.26428 4.56898 8.26428C3.65516 8.26428 3.65823 9.75767 4.56898 9.75767" fill="white"/>
</mask>
<g mask="url(#mask0_1260_4412)">
<path d="M10.2788 8.26733H3.6582V15.7741H10.2788V8.26733Z" fill="#FAE100"/>
</g>
<path d="M12.0299 10.0367L12.8978 12.7536H11.0916L12.0299 10.0367ZM11.0579 8.76408C10.6745 9.60737 9.29155 13.5938 8.83157 14.6518C8.50039 15.4153 9.93245 16.0378 10.2636 15.2743L10.5764 14.1857H13.4252C13.4252 14.1857 13.3271 14.2317 13.7043 15.2283C14.0109 16.0378 15.492 15.4767 15.1823 14.6671C14.7438 13.511 13.232 9.35285 12.956 8.76408C12.8303 8.49116 12.3734 8.29797 11.9318 8.29797C11.5669 8.29797 11.2081 8.4329 11.0579 8.76408Z" fill="#FAE100"/>
<mask id="mask1_1260_4412" style="mask-type:luminance" maskUnits="userSpaceOnUse" x="8" y="8" width="8" height="8">
<path d="M12.0299 10.0367L12.8978 12.7536H11.0916L12.0299 10.0367ZM11.0579 8.76408C10.6745 9.60737 9.29155 13.5938 8.83157 14.6518C8.50039 15.4153 9.93245 16.0378 10.2636 15.2743L10.5764 14.1857H13.4252C13.4252 14.1857 13.3271 14.2317 13.7043 15.2283C14.0109 16.0378 15.492 15.4767 15.1823 14.6671C14.7438 13.511 13.232 9.35285 12.956 8.76408C12.8303 8.49116 12.3734 8.29797 11.9318 8.29797C11.5669 8.29797 11.2081 8.4329 11.0579 8.76408Z" fill="white"/>
</mask>
<g mask="url(#mask1_1260_4412)">
<path d="M15.4952 8.29797H8.50049V16.0409H15.4952V8.29797Z" fill="#FAE100"/>
</g>
<path d="M15.731 9.01554C15.731 10.3709 15.7402 14.7376 15.7402 14.7376C15.7402 14.7376 15.6144 15.6055 16.3596 15.6055C17.1048 15.6055 18.7545 15.5963 19.4874 15.5963C20.2203 15.5963 20.2142 14.0385 19.4844 14.0385C18.7545 14.0385 17.4175 14.0293 17.4175 14.0293C17.4175 14.0293 17.4237 9.99068 17.4206 9.0094C17.4206 8.53409 16.9974 8.29797 16.5773 8.29797C16.1572 8.29797 15.734 8.53716 15.734 9.01247" fill="#FAE100"/>
<mask id="mask2_1260_4412" style="mask-type:luminance" maskUnits="userSpaceOnUse" x="15" y="8" width="6" height="8">
<path d="M15.731 9.01554C15.731 10.3709 15.7402 14.7376 15.7402 14.7376C15.7402 14.7376 15.6144 15.6055 16.3596 15.6055C17.1048 15.6055 18.7545 15.5963 19.4874 15.5963C20.2203 15.5963 20.2142 14.0385 19.4844 14.0385C18.7545 14.0385 17.4175 14.0293 17.4175 14.0293C17.4175 14.0293 17.4237 9.99068 17.4206 9.0094C17.4206 8.53409 16.9974 8.29797 16.5773 8.29797C16.1572 8.29797 15.734 8.53716 15.734 9.01247" fill="white"/>
</mask>
<g mask="url(#mask2_1260_4412)">
<path d="M20.2171 8.29797H15.6143V15.6024H20.2171V8.29797Z" fill="#FAE100"/>
</g>
<path d="M20.4134 8.7978C20.4288 9.3927 20.395 14.7622 20.395 15.1608C20.395 15.7894 21.9957 15.7864 21.9927 15.1608C21.9927 14.431 21.9927 13.048 21.9927 13.048L22.4618 12.6708L24.5164 15.4736C24.9304 16.0225 26.2367 15.032 25.8227 14.4831L23.6424 11.6098C23.6424 11.6098 25.1236 10.0091 25.7062 9.4295C26.0466 9.09218 24.9917 8.02811 24.6513 8.36849C24.3201 8.69661 22.0019 11.0179 22.0019 11.0179C22.0019 11.0179 22.0233 9.56136 22.0019 8.75487C21.9927 8.44822 21.6186 8.30103 21.2352 8.30103C20.8243 8.30103 20.4042 8.46968 20.4134 8.7978Z" fill="#FAE100"/>
<mask id="mask3_1260_4412" style="mask-type:luminance" maskUnits="userSpaceOnUse" x="20" y="8" width="6" height="8">
<path d="M20.4134 8.7978C20.4288 9.3927 20.395 14.7622 20.395 15.1608C20.395 15.7894 21.9957 15.7864 21.9927 15.1608C21.9927 14.431 21.9927 13.048 21.9927 13.048L22.4618 12.6708L24.5164 15.4736C24.9304 16.0225 26.2367 15.032 25.8227 14.4831L23.6424 11.6098C23.6424 11.6098 25.1236 10.0091 25.7062 9.4295C26.0466 9.09218 24.9917 8.02811 24.6513 8.36849C24.3201 8.69661 22.0019 11.0179 22.0019 11.0179C22.0019 11.0179 22.0233 9.56136 22.0019 8.75487C21.9927 8.44822 21.6186 8.30103 21.2352 8.30103C20.8243 8.30103 20.4042 8.46968 20.4134 8.7978Z" fill="white"/>
</mask>
<g mask="url(#mask3_1260_4412)">
<path d="M26.2398 8.03113H20.395V16.0194H26.2398V8.03113Z" fill="#FAE100"/>
</g>
</g>
<defs>
<clipPath id="clip0_1260_4412">
<rect width="30.2633" height="27.804" fill="white"/>
</clipPath>
</defs>
</svg>
