<svg width="20" height="20" viewBox="0 0 20 20" fill="none" xmlns="http://www.w3.org/2000/svg">
<path fill-rule="evenodd" clip-rule="evenodd" d="M13.506 12.3277C13.5834 12.405 13.6447 12.4969 13.6866 12.598C13.7285 12.6991 13.75 12.8074 13.75 12.9168C13.75 13.0262 13.7285 13.1346 13.6866 13.2357C13.6447 13.3368 13.5834 13.4286 13.506 13.506C13.4286 13.5834 13.3368 13.6447 13.2357 13.6866C13.1346 13.7285 13.0262 13.75 12.9168 13.75C12.8074 13.75 12.6991 13.7285 12.598 13.6866C12.4969 13.6447 12.405 13.5834 12.3277 13.506L10.0002 11.1785L7.67266 13.506C7.59545 13.5836 7.50365 13.6453 7.40254 13.6873C7.30143 13.7294 7.193 13.751 7.0835 13.751C6.97399 13.751 6.86556 13.7294 6.76445 13.6873C6.66334 13.6453 6.57154 13.5836 6.49433 13.506C6.41687 13.4287 6.35543 13.3368 6.3135 13.2357C6.27157 13.1346 6.24999 13.0263 6.24999 12.9168C6.24999 12.8074 6.27157 12.699 6.3135 12.5979C6.35543 12.4968 6.41687 12.405 6.49433 12.3277L8.82183 10.0002L6.49433 7.67266C6.41696 7.59529 6.35559 7.50344 6.31371 7.40235C6.27184 7.30126 6.25029 7.19291 6.25029 7.0835C6.25029 6.97408 6.27184 6.86573 6.31371 6.76464C6.35559 6.66355 6.41696 6.5717 6.49433 6.49433C6.5717 6.41696 6.66355 6.35559 6.76464 6.31371C6.86573 6.27184 6.97408 6.25029 7.0835 6.25029C7.19291 6.25029 7.30126 6.27184 7.40235 6.31371C7.50344 6.35559 7.59529 6.41696 7.67266 6.49433L10.0002 8.82183L12.3277 6.49433C12.405 6.41696 12.4969 6.35559 12.598 6.31371C12.6991 6.27184 12.8074 6.25029 12.9168 6.25029C13.0262 6.25029 13.1346 6.27184 13.2357 6.31371C13.3368 6.35559 13.4286 6.41696 13.506 6.49433C13.5834 6.5717 13.6447 6.66355 13.6866 6.76464C13.7285 6.86573 13.75 6.97408 13.75 7.0835C13.75 7.19291 13.7285 7.30126 13.6866 7.40235C13.6447 7.50344 13.5834 7.59529 13.506 7.67266L11.1785 10.0002L13.506 12.3277ZM10.0002 0.833496C4.93766 0.833496 0.833496 4.93766 0.833496 10.0002C0.833496 15.0627 4.93766 19.1668 10.0002 19.1668C15.0627 19.1668 19.1668 15.0627 19.1668 10.0002C19.1668 4.93766 15.0627 0.833496 10.0002 0.833496Z" fill="#CCCCCC"/>
</svg>
