<svg width="24" height="25" viewBox="0 0 24 25" fill="none" xmlns="http://www.w3.org/2000/svg">
<path fill-rule="evenodd" clip-rule="evenodd" d="M24 12.7836C24 11.8969 23.9215 11.0455 23.7773 10.2271H12.2451V15.0622H18.8355C18.5517 16.6248 17.6888 17.9484 16.3922 18.8352V21.971H20.3501C22.6653 19.7949 24.0011 16.5907 24.0011 12.7836H24Z" fill="#3E82F1"/>
<path fill-rule="evenodd" clip-rule="evenodd" d="M12.2455 24.9998C15.5516 24.9998 18.3236 23.8799 20.3493 21.9711L16.3914 18.8352C15.2944 19.5853 13.8928 20.0281 12.2443 20.0281C9.05472 20.0281 6.35537 17.8295 5.39214 14.875H1.30273V18.1133C3.31802 22.1984 7.45818 24.9998 12.2455 24.9998Z" fill="#32A753"/>
<path fill-rule="evenodd" clip-rule="evenodd" d="M5.39293 14.8754C5.14838 14.1253 5.0088 13.3245 5.0088 12.5002C5.0088 11.6759 5.14838 10.8752 5.39293 10.1251V6.88672H1.30238C0.472963 8.57419 0 10.483 0 12.5002C0 14.5174 0.472963 16.4263 1.30238 18.1138L5.39293 14.8754Z" fill="#F9BB00"/>
<path fill-rule="evenodd" clip-rule="evenodd" d="M12.2455 4.97174C14.0427 4.97174 15.6577 5.60292 16.9267 6.84056L20.4393 3.25483C18.3179 1.23881 15.5458 0 12.2455 0C7.45818 0 3.31802 2.80146 1.30273 6.88648L5.39329 10.1248C6.35652 7.17028 9.05587 4.97174 12.2455 4.97174Z" fill="#E74133"/>
</svg>
