<svg width="26" height="26" viewBox="0 0 26 26" fill="none" xmlns="http://www.w3.org/2000/svg">
<path d="M24 13C24 19.08 19.07 24 13 24C10.88 24 8.89 23.4 7.21 22.36L2.3 23.67L3.87 19.14C2.69 17.39 2 15.28 2 13C2 6.93 6.92 2 13 2C19.08 2 24 6.93 24 13Z" stroke="#4D4BA9" stroke-width="2.5" stroke-linecap="round" stroke-linejoin="round"/>
<path d="M8.38012 14.1899C8.93793 14.1899 9.39012 13.7377 9.39012 13.1799C9.39012 12.6221 8.93793 12.1699 8.38012 12.1699C7.82231 12.1699 7.37012 12.6221 7.37012 13.1799C7.37012 13.7377 7.82231 14.1899 8.38012 14.1899Z" fill="#4D4BA9"/>
<path d="M13.0295 14.1899C13.5873 14.1899 14.0395 13.7377 14.0395 13.1799C14.0395 12.6221 13.5873 12.1699 13.0295 12.1699C12.4717 12.1699 12.0195 12.6221 12.0195 13.1799C12.0195 13.7377 12.4717 14.1899 13.0295 14.1899Z" fill="#4D4BA9"/>
<path d="M17.6897 14.1899C18.2475 14.1899 18.6997 13.7377 18.6997 13.1799C18.6997 12.6221 18.2475 12.1699 17.6897 12.1699C17.1319 12.1699 16.6797 12.6221 16.6797 13.1799C16.6797 13.7377 17.1319 14.1899 17.6897 14.1899Z" fill="#4D4BA9"/>
</svg>
