<svg width="22" height="23" viewBox="0 0 22 23" fill="none" xmlns="http://www.w3.org/2000/svg">
<path fill-rule="evenodd" clip-rule="evenodd" d="M3.5835 7.41667C3.5835 3.32056 6.90405 0 11.0002 0C15.0963 0 18.4168 3.32056 18.4168 7.41667V8.33334C18.4168 10.5339 18.7156 12.4847 19.171 13.8507C19.4004 14.539 19.6515 15.0238 19.8818 15.316C20.0523 15.5324 20.1541 15.5761 20.1774 15.5834C20.7248 15.5891 21.1668 16.0346 21.1668 16.5833V16.7917C21.1668 17.344 20.7191 17.7917 20.1668 17.7917H1.8335C1.28121 17.7917 0.833496 17.344 0.833496 16.7917V16.5833C0.833496 16.0346 1.27551 15.5891 1.82292 15.5834C1.84626 15.5761 1.948 15.5324 2.11851 15.316C2.34881 15.0238 2.59994 14.539 2.82936 13.8507C3.2847 12.4847 3.5835 10.5339 3.5835 8.33334V7.41667ZM1.81774 15.5847C1.81773 15.5846 1.81863 15.5844 1.82044 15.5841L1.81886 15.5845C1.81812 15.5847 1.81774 15.5847 1.81774 15.5847Z" fill="#DADADA"/>
<path d="M8.25013 19.5C7.87258 19.5 7.52722 19.7126 7.35723 20.0497C7.18723 20.3869 7.2216 20.791 7.44606 21.0945C8.27818 22.2199 9.53523 23 11.0001 23C12.465 23 13.7221 22.2199 14.5542 21.0945C14.7787 20.791 14.813 20.3869 14.643 20.0497C14.473 19.7126 14.1277 19.5 13.7501 19.5H8.25013Z" fill="#DADADA"/>
</svg>
