<svg width="30" height="30" viewBox="0 0 30 30" fill="none" xmlns="http://www.w3.org/2000/svg">
<g opacity="0.8" clip-path="url(#clip0_2019_49265)">
<path d="M9.80908 1.35189C9.80908 1.35189 14.4024 1.24128 15.0995 5.53051" stroke="#6C69FF" stroke-width="1.5" stroke-linecap="round" stroke-linejoin="round"/>
<path d="M18.7594 3.74849C17.9004 4.43673 16.7179 4.52276 15.7843 4.03116C15.4979 3.03567 15.8091 1.90498 16.6681 1.21674C17.527 0.528497 18.7096 0.442467 19.6432 0.921779C19.9419 1.92956 19.6183 3.04796 18.7469 3.74849H18.7594Z" fill="#6C69FF" stroke="#6C69FF" stroke-linecap="round" stroke-linejoin="round"/>
<path d="M29.029 17.5994C28.6805 23.7444 23.4523 29.0414 18.6099 29.0045C17.4523 29.0045 16.195 28.4761 15.2987 27.9599C14.4025 28.6727 13.307 29.0906 11.9502 29.0783C7.09542 29.0414 1.46886 23.8919 0.958487 17.7469C0.410769 11.2085 5.01658 6.37856 9.87135 6.41543C11.7137 6.42772 13.4315 7.16512 14.8257 8.41871C16.2448 7.1897 17.9751 6.47688 19.8299 6.48917C24.6846 6.52604 29.4647 9.50023 29.0166 17.5994H29.029Z" fill="#6C69FF" stroke="#6C69FF" stroke-width="1.5" stroke-linecap="round" stroke-linejoin="round"/>
<path d="M25.3194 17.0217C25.3194 17.0217 26.5393 21.8148 21.5601 24.7767" stroke="#BBBAFF" stroke-width="1.5" stroke-linecap="round" stroke-linejoin="round"/>
</g>
<defs>
<clipPath id="clip0_2019_49265">
<rect width="30" height="30" fill="white"/>
</clipPath>
</defs>
</svg>
