<svg width="20" height="20" viewBox="0 0 20 20" fill="none" xmlns="http://www.w3.org/2000/svg">
<path fill-rule="evenodd" clip-rule="evenodd" d="M13.506 12.3275C13.5834 12.4049 13.6447 12.4968 13.6866 12.5979C13.7285 12.6989 13.75 12.8073 13.75 12.9167C13.75 13.0261 13.7285 13.1345 13.6866 13.2356C13.6447 13.3366 13.5834 13.4285 13.506 13.5059C13.4286 13.5832 13.3368 13.6446 13.2357 13.6865C13.1346 13.7284 13.0262 13.7499 12.9168 13.7499C12.8074 13.7499 12.6991 13.7284 12.598 13.6865C12.4969 13.6446 12.405 13.5832 12.3277 13.5059L10.0002 11.1784L7.67266 13.5059C7.59545 13.5835 7.50365 13.6452 7.40254 13.6872C7.30143 13.7293 7.193 13.7509 7.0835 13.7509C6.97399 13.7509 6.86556 13.7293 6.76445 13.6872C6.66334 13.6452 6.57154 13.5835 6.49433 13.5059C6.41687 13.4286 6.35543 13.3367 6.3135 13.2356C6.27157 13.1345 6.24999 13.0262 6.24999 12.9167C6.24999 12.8073 6.27157 12.6989 6.3135 12.5978C6.35543 12.4967 6.41687 12.4049 6.49433 12.3275L8.82183 10L6.49433 7.67254C6.41696 7.59517 6.35559 7.50332 6.31371 7.40223C6.27184 7.30114 6.25029 7.19279 6.25029 7.08337C6.25029 6.97396 6.27184 6.86561 6.31371 6.76452C6.35559 6.66343 6.41696 6.57158 6.49433 6.49421C6.5717 6.41684 6.66355 6.35546 6.76464 6.31359C6.86573 6.27172 6.97408 6.25017 7.0835 6.25017C7.19291 6.25017 7.30126 6.27172 7.40235 6.31359C7.50344 6.35546 7.59529 6.41684 7.67266 6.49421L10.0002 8.82171L12.3277 6.49421C12.405 6.41684 12.4969 6.35546 12.598 6.31359C12.6991 6.27172 12.8074 6.25017 12.9168 6.25017C13.0262 6.25017 13.1346 6.27172 13.2357 6.31359C13.3368 6.35546 13.4286 6.41684 13.506 6.49421C13.5834 6.57158 13.6447 6.66343 13.6866 6.76452C13.7285 6.86561 13.75 6.97396 13.75 7.08337C13.75 7.19279 13.7285 7.30114 13.6866 7.40223C13.6447 7.50332 13.5834 7.59517 13.506 7.67254L11.1785 10L13.506 12.3275ZM10.0002 0.833374C4.93766 0.833374 0.833496 4.93754 0.833496 10C0.833496 15.0625 4.93766 19.1667 10.0002 19.1667C15.0627 19.1667 19.1668 15.0625 19.1668 10C19.1668 4.93754 15.0627 0.833374 10.0002 0.833374Z" fill="#CCCCCC"/>
</svg>
