<svg width="65" height="22" viewBox="0 0 65 22" fill="none" xmlns="http://www.w3.org/2000/svg">
<path d="M38.7984 12.3527C38.7503 12.1004 38.5941 12.0283 38.4019 12.0523C37.2844 12.3047 36.1909 12.4489 34.8091 12.533V4.93891H36.5154C36.7437 4.93891 36.8398 4.84278 36.8398 4.63851V2.42758C36.8398 2.22331 36.7437 2.10315 36.5154 2.10315H23.9707C23.7184 2.10315 23.6223 2.22331 23.6223 2.42758V4.63851C23.6223 4.84278 23.7184 4.93891 23.9707 4.93891H25.6049V12.7132H23.3459C23.1176 12.7132 23.0215 12.8334 23.0215 13.0376V15.2486C23.0215 15.4528 23.1176 15.573 23.3459 15.573H27.6116C29.1256 15.573 32.3699 15.4769 34.8211 15.2606C36.7316 15.1284 37.5728 14.8641 38.8945 14.5877C39.1228 14.5396 39.1709 14.4675 39.1469 14.2873L38.8104 12.3527H38.7984ZM31.2884 12.6411L29.0775 12.7132V4.93891H31.2884V12.6411Z" fill="#6C69FF"/>
<path d="M42.3795 19.4538V1.59812C42.3795 1.59812 42.5237 0 40.4569 0C38.3902 0 38.5344 1.59812 38.5344 1.59812V19.4658C38.5344 19.4658 38.4142 21.0519 40.4569 21.0519C42.4996 21.0519 42.3795 19.4538 42.3795 19.4538Z" fill="#6C69FF"/>
<path d="M61.326 15.3446C61.3501 15.5249 61.302 15.5969 61.0737 15.645C59.7519 15.9214 58.9349 16.1737 57.0243 16.3059C55.6906 16.402 54.1766 16.4381 51.2807 16.39H46.967C46.7147 16.39 46.6426 16.2698 46.6426 15.7291V1.70654C46.6426 1.87477 46.7147 1.74259 46.967 1.74259H57.3968C57.6251 1.74259 57.7213 1.86275 57.7213 2.04299V4.07368C57.7213 4.27795 57.6251 4.37408 57.3968 4.37408H50.1512V7.57031H56.9282C57.1805 7.57031 57.2286 7.64241 57.2286 7.87071V9.80527C57.2286 10.0095 57.1805 10.0816 56.9282 10.0816H50.1512V13.7225H51.7734C54.4169 13.6744 55.8107 13.6504 57.1445 13.5663C58.4783 13.4821 59.4876 13.35 60.6171 13.0976C60.8214 13.0736 60.9656 13.1457 61.0136 13.398L61.3501 15.3326L61.326 15.3446Z" fill="#6C69FF"/>
<path d="M64.0172 19.4538V1.59812C64.0172 1.59812 64.1614 0 62.0946 0C60.0279 0 60.1721 1.59812 60.1721 1.59812V19.4658C60.1721 19.4658 60.0519 21.0519 62.0946 21.0519C64.1373 21.0519 64.0172 19.4538 64.0172 19.4538Z" fill="#6C69FF"/>
<path d="M1.58594 5.4675C1.58594 2.77593 3.71276 0.468872 7.50979 0.468872C11.3068 0.468872 13.4577 2.77593 13.4577 5.4675C13.4577 8.15906 11.2708 10.4421 7.50979 10.4421C3.7488 10.4421 1.58594 8.12301 1.58594 5.4675ZM5.07055 5.4675C5.07055 6.90941 5.98376 8.05092 7.50979 8.05092C9.03581 8.05092 9.94902 6.92142 9.94902 5.4675C9.94902 4.01357 9.03581 2.86004 7.50979 2.86004C5.98376 2.86004 5.07055 3.98954 5.07055 5.4675Z" fill="#6C69FF"/>
<path d="M19.6461 19.4538V1.59812C19.6461 1.59812 19.7903 0 17.7235 0C15.6568 0 15.801 1.59812 15.801 1.59812V19.4658C15.801 19.4658 15.6808 21.0519 17.7235 21.0519C19.7662 21.0519 19.6461 19.4538 19.6461 19.4538Z" fill="#6C69FF"/>
<path d="M16.6901 11.3432C16.6421 11.0909 16.4858 11.0188 16.2936 11.0428C15.3443 11.2591 14.5873 11.3552 13.5419 11.4634C13.1334 11.5114 11.7035 11.6196 11.4151 11.6436C9.26427 11.8118 6.93319 11.908 4.67419 11.908H0.32443C0.0961274 11.908 0 12.0281 0 12.2084V14.2631C0 14.4673 0.0961274 14.5635 0.32443 14.5635H5.92385V19.3578C5.92385 19.3578 5.92385 19.4059 5.92385 19.478V19.526C5.92385 19.526 5.92385 19.526 5.92385 19.5381C5.9599 19.9466 6.20022 20.9439 7.85841 20.9439C9.51661 20.9439 9.75693 19.9586 9.79298 19.5381V19.502C9.79298 19.4179 9.79298 19.3578 9.79298 19.3578V14.5034C10.6221 14.4673 13.2656 14.2511 14.2869 14.0949C15.2242 13.9507 15.873 13.7824 16.7742 13.5902C17.0025 13.5421 17.0506 13.47 17.0266 13.2898L16.6901 11.3552V11.3432Z" fill="#6C69FF"/>
</svg>
