<svg width="24" height="24" viewBox="0 0 24 24" fill="none" xmlns="http://www.w3.org/2000/svg">
<path fill-rule="evenodd" clip-rule="evenodd" d="M17.6452 1.32474C17.059 1.17291 16.4442 1.09213 15.8107 1.09213H7.7721C3.75584 1.09213 0.493164 4.33859 0.493164 8.35175V16.3646C0.493164 20.3777 3.75584 23.6242 7.7721 23.6242H15.8107C19.827 23.6242 23.0896 20.3777 23.0896 16.3646V8.35175C23.0896 7.68091 22.9985 7.03149 22.8278 6.41508L20.5896 8.64612V16.3646C20.5896 18.9895 18.4538 21.1242 15.8107 21.1242H7.7721C5.12898 21.1242 2.99316 18.9895 2.99316 16.3646V8.35175C2.99316 5.72687 5.12898 3.59213 7.7721 3.59213H15.3705L17.6452 1.32474Z" fill="#4D4BA9"/>
<path fill-rule="evenodd" clip-rule="evenodd" d="M22.3388 0.666289C22.1379 0.475984 21.8867 0.375824 21.6254 0.375824C21.3641 0.375824 21.1129 0.465968 20.912 0.666289L11.1953 10.3618C10.5924 10.9628 10.5924 11.9343 11.1953 12.5353L11.3159 12.6555C11.6073 12.956 12.0092 13.1062 12.4011 13.1062C12.793 13.1062 13.1849 12.956 13.4863 12.6555L23.213 2.95996C23.6049 2.56933 23.6049 1.92831 23.213 1.53768L22.3388 0.666289Z" fill="#4D4BA9"/>
</svg>
