<svg width="32" height="33" viewBox="0 0 32 33" fill="none" xmlns="http://www.w3.org/2000/svg">
<g opacity="0.8" clip-path="url(#clip0_2019_49273)">
<path d="M31.0917 18.297C31.921 15.7565 30.5915 13.058 28.1299 12.1102C28.8934 9.53021 27.4718 6.79225 24.8918 5.96296C22.3118 5.13367 19.5738 6.48949 18.6655 9.01684C16.0592 8.20072 13.2686 9.62236 12.4261 12.2287C11.8601 13.9794 12.3208 15.8091 13.466 17.0991C12.6894 17.6915 12.0839 18.5208 11.7548 19.5212C10.8992 22.1407 12.334 24.9576 14.9535 25.8132C16.2303 26.2213 17.5466 26.0897 18.6655 25.55C19.2579 26.6425 20.232 27.5245 21.5088 27.9325C24.1283 28.7881 26.9452 27.3533 27.8009 24.7338C28.1563 23.6544 28.1036 22.5487 27.7482 21.5483C29.2751 21.1008 30.5652 19.9292 31.0917 18.3101V18.297Z" fill="#BBBAFF" stroke="#BBBAFF" stroke-linecap="round" stroke-linejoin="round"/>
<path d="M22.2723 14.032L16.9675 31.0917" stroke="#D4D4FF" stroke-width="2" stroke-linecap="round" stroke-linejoin="round"/>
<path d="M23.6413 9.74087C22.9568 6.63433 19.9687 4.65984 16.8622 5.1732C16.0855 2.0535 12.9921 0.105332 9.83294 0.802987C6.67375 1.50064 4.69926 4.55453 5.27844 7.6874C2.10608 8.41138 0.0920985 11.5574 0.802917 14.7561C1.2768 16.9017 2.85639 18.4945 4.80456 19.1263C4.37017 20.2057 4.23854 21.4167 4.50181 22.6409C5.19946 25.8528 8.37182 27.8799 11.5837 27.1823C13.1369 26.84 14.4138 25.9054 15.2431 24.6812C16.5067 25.4447 18.0469 25.7606 19.6001 25.4184C22.812 24.7207 24.8391 21.5484 24.1415 18.3365C23.8519 17.007 23.1279 15.9145 22.167 15.0983C23.457 13.7162 24.0756 11.7417 23.6413 9.75403V9.74087Z" fill="#6C69FF" stroke="#6C69FF" stroke-linecap="round" stroke-linejoin="round"/>
<path d="M12.0049 10.6754L16.8358 31.3945" stroke="#BBBAFF" stroke-width="2" stroke-linecap="round" stroke-linejoin="round"/>
</g>
<defs>
<clipPath id="clip0_2019_49273">
<rect width="32" height="32.3817" fill="white"/>
</clipPath>
</defs>
</svg>
