<svg width="24" height="24" viewBox="0 0 24 24" fill="none" xmlns="http://www.w3.org/2000/svg">
<path d="M23 12C23 18.08 18.07 23 12 23C9.88 23 7.89 22.4 6.21 21.36L1.3 22.67L2.87 18.14C1.69 16.39 1 14.28 1 12C1 5.93 5.92 1 12 1C18.08 1 23 5.93 23 12Z" fill="#4D4BA9" stroke="#4D4BA9" stroke-linecap="round" stroke-linejoin="round"/>
<path d="M7.38012 13.1899C7.93793 13.1899 8.39012 12.7377 8.39012 12.1799C8.39012 11.6221 7.93793 11.1699 7.38012 11.1699C6.82231 11.1699 6.37012 11.6221 6.37012 12.1799C6.37012 12.7377 6.82231 13.1899 7.38012 13.1899Z" fill="white"/>
<path d="M12.0295 13.1899C12.5873 13.1899 13.0395 12.7377 13.0395 12.1799C13.0395 11.6221 12.5873 11.1699 12.0295 11.1699C11.4717 11.1699 11.0195 11.6221 11.0195 12.1799C11.0195 12.7377 11.4717 13.1899 12.0295 13.1899Z" fill="white"/>
<path d="M16.6897 13.1899C17.2475 13.1899 17.6997 12.7377 17.6997 12.1799C17.6997 11.6221 17.2475 11.1699 16.6897 11.1699C16.1319 11.1699 15.6797 11.6221 15.6797 12.1799C15.6797 12.7377 16.1319 13.1899 16.6897 13.1899Z" fill="white"/>
</svg>
