<svg width="22" height="24" viewBox="0 0 22 24" fill="none" xmlns="http://www.w3.org/2000/svg">
<path d="M5.75 21.3264C5.15326 21.3264 4.58097 21.093 4.15901 20.6775C3.73705 20.2621 3.5 19.6986 3.5 19.111V6.36516C3.5 5.3859 3.89509 4.44675 4.59835 3.7543C5.30161 3.06186 6.25544 2.67285 7.25 2.67285H14.75C15.7446 2.67285 16.6984 3.06186 17.4017 3.7543C18.1049 4.44675 18.5 5.3859 18.5 6.36516V19.111C18.5002 19.5117 18.3899 19.905 18.181 20.249C17.9721 20.5929 17.6723 20.8746 17.3137 21.064C16.955 21.2535 16.5509 21.3436 16.1443 21.3248C15.7378 21.306 15.344 21.1789 15.005 20.9572L11 18.3282L6.995 20.9572C6.62595 21.1982 6.19286 21.3266 5.75 21.3264ZM11 16.7036C11.147 16.7048 11.2905 16.7484 11.4125 16.8292L15.8375 19.7239C15.9463 19.799 16.0744 19.8424 16.2071 19.8489C16.3398 19.8554 16.4717 19.8249 16.5875 19.7609C16.7073 19.6981 16.8075 19.6045 16.8775 19.49C16.9475 19.3756 16.9846 19.2446 16.985 19.111V6.36516C16.985 5.7776 16.7479 5.21411 16.326 4.79865C15.904 4.38318 15.3317 4.14977 14.735 4.14977H7.25C6.65326 4.14977 6.08097 4.38318 5.65901 4.79865C5.23705 5.21411 5 5.7776 5 6.36516V19.111C5.00036 19.2446 5.03752 19.3756 5.10752 19.49C5.17752 19.6045 5.27774 19.6981 5.3975 19.7609C5.51334 19.8249 5.64521 19.8554 5.77791 19.8489C5.9106 19.8424 6.03872 19.799 6.1475 19.7239L10.5725 16.8292C10.6988 16.7456 10.8479 16.7018 11 16.7036Z" fill="#222222" stroke="#222222" stroke-width="0.5"/>
</svg>
