<svg width="32" height="27" viewBox="0 0 32 27" fill="none" xmlns="http://www.w3.org/2000/svg">
<g opacity="0.8" clip-path="url(#clip0_2019_49279)">
<path d="M15.2342 0.878921C11.9184 2.07742 9.00202 4.36789 6.72487 7.07118C5.88592 8.05662 5.12687 9.12195 4.44772 10.2139C3.12936 12.3446 2.11729 14.6351 1.29166 16.9921C0.679093 18.7632 0.173058 20.5743 0.0265749 22.452C-0.0400085 23.2376 -0.0266919 24.05 0.226325 24.7957C0.812259 26.5002 2.6766 27.0063 4.31455 26.953C6.5118 26.8864 8.22965 25.9276 9.96082 24.6625C10.8664 23.9967 11.8385 23.3442 12.9571 23.1178C14.1423 22.8781 15.3274 22.9047 16.5259 22.8515C19.4157 22.7183 22.3986 22.5052 25.1552 21.5331C26.8197 20.9472 28.3245 20.0283 29.4698 18.6833C30.6683 17.2718 31.3208 15.3675 31.667 13.5697C32.0532 11.5722 32.1597 9.49482 31.7336 7.49731C31.1743 4.91388 29.6429 2.67667 27.2459 1.46486C24.8222 0.266354 22.0391 -0.11983 19.3491 0.0266533C17.9242 0.106553 16.5393 0.412837 15.2342 0.878921Z" fill="#BBBAFF"/>
<path d="M4.84734 13.9692C4.47447 14.7416 4.1815 15.5539 3.8619 16.3263C3.24934 17.831 2.72998 19.3625 2.184 20.8939C1.81113 21.9725 1.79782 23.9301 2.38375 24.4627C4.54105 26.4203 8.34963 22.665 10.8398 21.3999C12.1582 20.7208 13.4899 20.521 14.9547 20.4411C16.5793 20.3479 18.204 20.3878 19.8286 20.2813C22.7982 20.0816 25.5681 19.1494 27.6855 16.9921C29.2568 15.3808 30.1757 13.1702 30.2289 10.933C30.2955 8.12317 28.6709 4.98044 26.2206 3.52892C25.0221 2.80982 23.5573 2.4769 22.1857 2.35705C16.1399 1.85101 10.7866 5.73949 7.31093 10.3737C6.63177 11.2792 5.89936 12.1448 5.32674 13.1169C5.15362 13.3966 5.00714 13.6895 4.86065 13.9958L4.84734 13.9692Z" fill="#6C69FF"/>
<path d="M23.8502 12.9305C24.9902 12.9305 25.9143 12.0064 25.9143 10.8664C25.9143 9.72646 24.9902 8.80234 23.8502 8.80234C22.7103 8.80234 21.7861 9.72646 21.7861 10.8664C21.7861 12.0064 22.7103 12.9305 23.8502 12.9305Z" fill="#BBBAFF" stroke="#BBBAFF" stroke-linecap="round" stroke-linejoin="round"/>
</g>
<defs>
<clipPath id="clip0_2019_49279">
<rect width="32" height="26.9796" fill="white"/>
</clipPath>
</defs>
</svg>
