<svg width="26" height="26" viewBox="0 0 26 26" fill="none" xmlns="http://www.w3.org/2000/svg">
<g opacity="0.8" clip-path="url(#clip0_2020_13179)">
<path d="M1 12.25C1 18.88 6.37 24.25 13 24.25C19.63 24.25 25 18.88 25 12.25H1Z" fill="#6C69FF" stroke="#6C69FF" stroke-width="2" stroke-linecap="round" stroke-linejoin="round"/>
<path d="M24.8098 9.84C24.8098 7.98 23.5598 6 21.7798 5.71C21.5298 3.88 19.9798 2.47 18.0898 2.47C17.5598 2.47 17.0698 2.58 16.6098 2.78C15.9498 1.72 14.7798 1 13.4398 1C11.9998 1 10.7698 1.82 10.1398 3C9.65983 2.78 9.13982 2.65 8.56982 2.65C6.62982 2.65 5.05982 4.13 4.85982 6.01C4.83982 6.01 4.82982 6.01 4.80982 6.01C2.73982 6.01 1.06982 7.69 1.06982 9.75L24.7998 9.84H24.8098Z" fill="#BBBAFF" stroke="#BBBAFF" stroke-width="2" stroke-linecap="round" stroke-linejoin="round"/>
<path d="M8.39004 6.87988L7.29004 7.97988" stroke="#E7E7FF" stroke-width="1.3" stroke-linecap="round" stroke-linejoin="round"/>
<path d="M19.6498 7.2002L18.5498 8.3002" stroke="#E7E7FF" stroke-width="1.3" stroke-linecap="round" stroke-linejoin="round"/>
<path d="M14.3499 5.97047L13.1499 4.98047" stroke="#E7E7FF" stroke-width="1.3" stroke-linecap="round" stroke-linejoin="round"/>
</g>
<defs>
<clipPath id="clip0_2020_13179">
<rect width="26" height="25.25" fill="white"/>
</clipPath>
</defs>
</svg>
