<svg width="22" height="24" viewBox="0 0 22 24" fill="none" xmlns="http://www.w3.org/2000/svg">
<g clip-path="url(#clip0_3707_16148)">
<path d="M18.195 23.93H3.81502C2.69502 23.93 1.66502 23.42 1.05502 22.56C0.505024 21.79 0.365024 20.84 0.675024 19.95C2.06502 15.94 6.21502 13.24 11.005 13.24C15.795 13.24 19.935 15.94 21.335 19.95C21.645 20.84 21.505 21.79 20.955 22.56C20.345 23.41 19.315 23.93 18.205 23.93H18.195ZM11.005 15.66C7.30502 15.66 4.00502 17.75 2.96502 20.74C2.94502 20.79 2.88502 20.96 3.03502 21.16C3.19502 21.38 3.48502 21.51 3.82502 21.51H18.205C18.545 21.51 18.835 21.38 18.985 21.16C19.125 20.96 19.075 20.8 19.055 20.74C18.015 17.75 14.715 15.66 11.015 15.66H11.005Z" fill="#4D4BA9"/>
<path d="M10.7652 12.3799C7.34519 12.3799 4.56519 9.61995 4.56519 6.22995C4.56519 2.83995 7.35519 0.0699463 10.7652 0.0699463C14.1752 0.0699463 16.9652 2.82995 16.9652 6.21995C16.9652 9.60995 14.1852 12.3699 10.7652 12.3699V12.3799ZM10.7652 2.47995C8.67519 2.47995 6.97519 4.15995 6.97519 6.22995C6.97519 8.29995 8.67519 9.97995 10.7652 9.97995C12.8552 9.97995 14.5552 8.29995 14.5552 6.22995C14.5552 4.15995 12.8552 2.47995 10.7652 2.47995Z" fill="#4D4BA9"/>
</g>
<defs>
<clipPath id="clip0_3707_16148">
<rect width="20.97" height="23.86" fill="white" transform="translate(0.515137 0.0699463)"/>
</clipPath>
</defs>
</svg>
