<svg width="20" height="20" viewBox="0 0 20 20" fill="none" xmlns="http://www.w3.org/2000/svg">
<path d="M16.5 3H15V1.5C15 1.36739 14.9473 1.24021 14.8536 1.14645C14.7598 1.05268 14.6326 1 14.5 1C14.3674 1 14.2402 1.05268 14.1464 1.14645C14.0527 1.24021 14 1.36739 14 1.5V3H6V1.5C6 1.36739 5.94732 1.24021 5.85355 1.14645C5.75979 1.05268 5.63261 1 5.5 1C5.36739 1 5.24021 1.05268 5.14645 1.14645C5.05268 1.24021 5 1.36739 5 1.5V3H3.5C2.83717 3.0007 2.20169 3.26431 1.733 3.733C1.26431 4.20169 1.0007 4.83717 1 5.5V16.5C1.0007 17.1628 1.26431 17.7983 1.733 18.267C2.20169 18.7357 2.83717 18.9993 3.5 19H16.5C17.1628 18.9993 17.7983 18.7357 18.267 18.267C18.7357 17.7983 18.9993 17.1628 19 16.5V5.5C18.9993 4.83717 18.7357 4.20169 18.267 3.733C17.7983 3.26431 17.1628 3.0007 16.5 3ZM3.5 4H5V5.5C5 5.63261 5.05268 5.75979 5.14645 5.85355C5.24021 5.94732 5.36739 6 5.5 6C5.63261 6 5.75979 5.94732 5.85355 5.85355C5.94732 5.75979 6 5.63261 6 5.5V4H14V5.5C14 5.63261 14.0527 5.75979 14.1464 5.85355C14.2402 5.94732 14.3674 6 14.5 6C14.6326 6 14.7598 5.94732 14.8536 5.85355C14.9473 5.75979 15 5.63261 15 5.5V4H16.5C16.8977 4.00043 17.279 4.15861 17.5602 4.43982C17.8414 4.72103 17.9996 5.10231 18 5.5V8H2V5.5C2.00043 5.10231 2.15861 4.72103 2.43982 4.43982C2.72103 4.15861 3.10231 4.00043 3.5 4ZM16.5 18H3.5C3.10231 17.9996 2.72103 17.8414 2.43982 17.5602C2.15861 17.279 2.00043 16.8977 2 16.5V9H18V16.5C17.9996 16.8977 17.8414 17.279 17.5602 17.5602C17.279 17.8414 16.8977 17.9996 16.5 18Z" fill="#222222" stroke="#222222" stroke-width="0.7"/>
</svg>
