<svg width="24" height="25" viewBox="0 0 24 25" fill="none" xmlns="http://www.w3.org/2000/svg">
<path d="M14.5665 3.96713H6.52796C3.19827 3.96713 0.499023 6.65773 0.499023 9.97675V17.9896C0.499023 21.3086 3.19827 23.9992 6.52796 23.9992H14.5665C17.8962 23.9992 20.5955 21.3086 20.5955 17.9896V9.97675C20.5955 6.65773 17.8962 3.96713 14.5665 3.96713Z" fill="#4D4BA9" stroke="#4D4BA9" stroke-miterlimit="10"/>
<path d="M10.3713 15.746C9.68807 15.746 9.05503 15.4856 8.57271 15.0048L8.45214 14.8847C7.45736 13.8931 7.45736 12.2805 8.45214 11.2989L18.1788 1.59339C18.5607 1.21278 19.0631 1.00244 19.6057 1.00244C20.1483 1.00244 20.6507 1.21278 21.0325 1.59339L21.9067 2.46478C22.2886 2.84539 22.4996 3.34619 22.4996 3.88706C22.4996 4.42792 22.2886 4.92872 21.9067 5.30933L12.18 15.0048C11.6977 15.4856 11.0647 15.746 10.3814 15.746H10.3713Z" fill="#4D4BA9"/>
<path d="M19.6059 2.00403C19.8671 2.00403 20.1183 2.10419 20.3193 2.29449L21.1935 3.16589C21.5854 3.55651 21.5854 4.19754 21.1935 4.58816L11.4668 14.2837C11.1654 14.5842 10.7735 14.7344 10.3816 14.7344C9.98973 14.7344 9.5878 14.5842 9.2964 14.2837L9.17583 14.1635C8.57293 13.5625 8.57293 12.591 9.17583 11.99L18.8925 2.29449C19.0934 2.09417 19.3446 2.00403 19.6059 2.00403ZM19.6059 0.000823975C18.802 0.000823975 18.0384 0.311321 17.4757 0.882234L7.74898 10.5777C6.36232 11.96 6.36232 14.2036 7.74898 15.5858L7.86955 15.706C8.54279 16.377 9.42703 16.7476 10.3816 16.7476C11.3362 16.7476 12.2204 16.377 12.8937 15.706L22.6204 6.01044C23.796 4.83856 23.796 2.9255 22.6204 1.75363L21.7462 0.882234C21.1734 0.311321 20.4198 0.000823975 19.6159 0.000823975H19.6059Z" fill="white"/>
</svg>
