<svg width="38" height="38" viewBox="0 0 38 38" fill="none" xmlns="http://www.w3.org/2000/svg">
<path fill-rule="evenodd" clip-rule="evenodd" d="M27.2441 16.1737L18.4043 25.0151C18.1065 25.3108 17.7039 25.4768 17.2841 25.4768C16.8644 25.4768 16.4617 25.3108 16.1639 25.0151L10.7553 19.6064C10.6083 19.4594 10.4916 19.2849 10.4121 19.0928C10.3325 18.9007 10.2916 18.6949 10.2916 18.487C10.2916 18.0671 10.4584 17.6644 10.7553 17.3676C11.0521 17.0707 11.4548 16.9039 11.8747 16.9039C12.2945 16.9039 12.6972 17.0707 12.9941 17.3676L17.2833 21.6568L25.0053 13.9349C25.1523 13.7879 25.3268 13.6713 25.5189 13.5917C25.7109 13.5122 25.9168 13.4712 26.1247 13.4712C26.3326 13.4712 26.5384 13.5122 26.7305 13.5917C26.9226 13.6713 27.0971 13.7879 27.2441 13.9349C27.3911 14.0819 27.5077 14.2564 27.5873 14.4485C27.6668 14.6406 27.7078 14.8464 27.7078 15.0543C27.7078 15.2622 27.6668 15.4681 27.5873 15.6601C27.5077 15.8522 27.3911 16.0267 27.2441 16.1737ZM18.9997 1.58331C9.38092 1.58331 1.58301 9.38123 1.58301 19C1.58301 28.6187 9.38092 36.4166 18.9997 36.4166C28.6184 36.4166 36.4163 28.6187 36.4163 19C36.4163 9.38123 28.6184 1.58331 18.9997 1.58331Z" fill="#6C69FF"/>
</svg>
