<svg width="30" height="24" viewBox="0 0 30 24" fill="none" xmlns="http://www.w3.org/2000/svg">
<g clip-path="url(#clip0_4658_13075)">
<path d="M5.28951 23.4048C4.10092 23.4048 2.87667 22.8699 1.85448 21.8834C0.35686 20.4333 -0.296864 18.1155 0.119143 15.667C0.856068 11.709 2.95987 10.2708 4.58824 9.74786C7.58348 8.80888 10.9115 10.259 12.2071 11.5307C13.5264 12.8263 14.0019 14.9063 13.3838 16.5823C12.8489 18.0204 11.6128 18.9119 9.99632 19.0307C8.24909 19.1139 6.8109 18.484 6.10963 17.3786C5.6342 16.6417 5.28951 15.3699 6.27604 13.5276L7.27445 11.2574C6.5613 11.1742 5.81249 11.2098 5.1231 11.4357C3.42342 11.9705 2.32992 13.4919 1.86637 15.9642C1.49791 18.1393 2.2586 19.7796 3.09062 20.5759C3.48285 20.9563 4.30298 21.5981 5.28951 21.5981L23.4393 21.5743C24.1524 21.5743 24.7705 21.1108 24.9726 20.4333L28.1817 9.83106C28.2412 9.64089 28.2055 9.43883 28.0867 9.28431C27.9678 9.1298 27.7895 9.03471 27.5874 9.03471L16.7119 8.93962C16.2245 8.93962 15.8204 8.5355 15.8323 8.03629C15.8323 7.54897 16.2364 7.15674 16.7237 7.15674L27.5993 7.25183C28.36 7.25183 29.0613 7.62029 29.513 8.23835C29.9646 8.85642 30.0954 9.629 29.8814 10.354L26.6722 20.9563C26.2325 22.3945 24.9369 23.3691 23.4274 23.3691L5.27762 23.3929L5.28951 23.4048ZM9.04545 11.709L7.88063 14.3358C7.53594 14.9895 7.22691 15.8334 7.61914 16.4396C7.96383 16.9864 8.85528 17.3192 9.79426 17.2716C11.0304 17.1765 11.5177 16.5228 11.7198 15.9761C12.1001 14.942 11.7792 13.6227 10.9591 12.8144C10.5906 12.446 9.88935 12.0181 9.04545 11.709Z" fill="#6C69FF"/>
<path d="M12.6468 17.0696C12.5161 17.0696 12.3853 17.0459 12.2665 16.9864C11.8267 16.7725 11.6365 16.2376 11.8505 15.7978L16.0343 7.0736C16.379 6.34856 16.3077 5.48089 15.856 4.86282C14.7506 3.3652 12.8727 2.4381 10.8521 2.37867C9.4614 2.3549 8.54619 2.73525 8.22527 3.1156C8.07075 3.37709 5.06362 9.0942 3.09056 12.8501C2.86473 13.2899 2.32986 13.4563 1.89009 13.2305C1.45031 13.0047 1.28391 12.4579 1.50974 12.03C6.62067 2.28358 6.7633 2.09341 6.81085 2.03398C7.59532 1.07122 9.09294 0.536357 10.8877 0.595787C13.4551 0.667102 15.8441 1.85569 17.2823 3.79309C18.1381 4.95791 18.2807 6.50308 17.6389 7.8343L13.4551 16.5585C13.3005 16.8795 12.9796 17.0696 12.6468 17.0696Z" fill="#6C69FF"/>
</g>
<defs>
<clipPath id="clip0_4658_13075">
<rect width="30" height="22.809" fill="white" transform="translate(0 0.595703)"/>
</clipPath>
</defs>
</svg>
