<svg width="16" height="20" viewBox="0 0 16 20" fill="none" xmlns="http://www.w3.org/2000/svg">
<path d="M2.75 19.3264C2.15326 19.3264 1.58097 19.093 1.15901 18.6775C0.737053 18.2621 0.5 17.6986 0.5 17.111V4.36516C0.5 3.3859 0.895088 2.44675 1.59835 1.7543C2.30161 1.06186 3.25544 0.672852 4.25 0.672852H11.75C12.7446 0.672852 13.6984 1.06186 14.4017 1.7543C15.1049 2.44675 15.5 3.3859 15.5 4.36516V17.111C15.5002 17.5117 15.3899 17.905 15.181 18.249C14.9721 18.5929 14.6723 18.8746 14.3137 19.064C13.955 19.2535 13.5509 19.3436 13.1443 19.3248C12.7378 19.306 12.344 19.1789 12.005 18.9572L8 16.3282L3.995 18.9572C3.62595 19.1982 3.19286 19.3266 2.75 19.3264ZM8 14.7036C8.14703 14.7048 8.29047 14.7484 8.4125 14.8292L12.8375 17.7239C12.9463 17.799 13.0744 17.8424 13.2071 17.8489C13.3398 17.8554 13.4717 17.8249 13.5875 17.7609C13.7073 17.6981 13.8075 17.6045 13.8775 17.49C13.9475 17.3756 13.9846 17.2446 13.985 17.111V4.36516C13.985 3.7776 13.7479 3.21411 13.326 2.79865C12.904 2.38318 12.3317 2.14977 11.735 2.14977H4.25C3.65326 2.14977 3.08097 2.38318 2.65901 2.79865C2.23705 3.21411 2 3.7776 2 4.36516V17.111C2.00036 17.2446 2.03752 17.3756 2.10752 17.49C2.17752 17.6045 2.27774 17.6981 2.3975 17.7609C2.51334 17.8249 2.64521 17.8554 2.77791 17.8489C2.9106 17.8424 3.03872 17.799 3.1475 17.7239L7.5725 14.8292C7.69877 14.7456 7.84787 14.7018 8 14.7036Z" fill="#222222" stroke="#222222" stroke-width="0.5"/>
</svg>
