<svg width="32" height="28" viewBox="0 0 32 28" fill="none" xmlns="http://www.w3.org/2000/svg">
<g clip-path="url(#clip0_4658_13050)">
<path d="M15.994 27.4186C15.8046 27.4186 15.6153 27.3681 15.4512 27.2671C15.2745 27.1535 10.9699 24.5405 7.77624 21.5867C4.3932 18.4561 0.90918 15.2372 0.90918 10.0238C0.90918 4.81034 4.75928 0.581543 9.85908 0.581543C11.5506 0.581543 13.5956 1.56616 15.9561 3.51014C17.3194 2.22257 19.0236 0.619413 22.0784 0.60679H22.091C24.4895 0.60679 26.7112 1.50304 28.3522 3.14407C30.1068 4.8987 31.0788 7.34762 31.0788 10.0238C31.0788 15.3129 27.4181 18.5823 24.1865 21.4731C23.7573 21.8644 19.8567 25.3105 16.5242 27.2798C16.3601 27.3808 16.1707 27.4312 15.994 27.4312V27.4186ZM9.85908 2.67701C5.88275 2.67701 2.99202 5.76971 2.99202 10.0238C2.99202 14.2778 5.99636 17.1054 9.17742 20.0466C11.5758 22.2683 14.7317 24.3512 15.9814 25.1338C19.011 23.2277 22.3814 20.2486 22.7727 19.8952C26.3956 16.6636 28.9707 14.0506 28.9707 10.0111C28.9707 7.89042 28.2133 5.9843 26.8626 4.62099C25.6003 3.35866 23.9467 2.70225 22.091 2.70225H22.0784C19.8441 2.70225 18.6575 3.83835 17.3952 5.02494C17.1553 5.25215 16.9155 5.47937 16.6756 5.69397C16.2843 6.0348 15.691 6.0348 15.2871 5.69397C12.4469 3.20718 10.768 2.67701 9.85908 2.67701Z" fill="#6C69FF"/>
<path d="M15.1732 19.9079C15.1732 19.9079 15.1479 19.9079 15.1353 19.9079C14.744 19.8953 14.4032 19.6302 14.2769 19.2641L11.4493 10.7182L9.7073 15.0606C9.56844 15.414 9.21499 15.6538 8.82367 15.6538H0.946746C0.429191 15.6538 0 15.2247 0 14.7071C0 14.1895 0.429191 13.7604 0.946746 13.7604H8.1925L10.6667 7.61283C10.8181 7.24675 11.1968 7.03215 11.5755 7.01953C11.9669 7.01953 12.3203 7.29724 12.4465 7.66332L15.2994 16.2724L17.8367 10.2637C17.9755 9.94813 18.2659 9.72091 18.6193 9.69567C18.9602 9.6578 19.301 9.8219 19.4903 10.0996L22.0781 13.8866H31.0659C31.5834 13.8866 32.0126 14.3158 32.0126 14.8333C32.0126 15.3509 31.5834 15.7801 31.0659 15.7801H21.5732C21.2576 15.7801 20.9673 15.6286 20.7905 15.3635L18.897 12.5864L16.0568 19.3146C15.9053 19.6681 15.5645 19.8953 15.1858 19.8953L15.1732 19.9079Z" fill="#BBBAFF"/>
</g>
<defs>
<clipPath id="clip0_4658_13050">
<rect width="32" height="26.8371" fill="white" transform="translate(0 0.581543)"/>
</clipPath>
</defs>
</svg>
