<svg width="26" height="26" viewBox="0 0 26 26" fill="none" xmlns="http://www.w3.org/2000/svg">
<g clip-path="url(#clip0_2020_12224)">
<path d="M1 12.25C1 18.88 6.37 24.25 13 24.25C19.63 24.25 25 18.88 25 12.25H1Z" stroke="#6C69FF" stroke-width="2" stroke-linecap="round" stroke-linejoin="round"/>
<path d="M24.9198 9.39977C24.9198 7.53977 23.5598 6.00977 21.7798 5.71977C21.5298 3.88977 19.9798 2.47977 18.0898 2.47977C17.5598 2.47977 17.0698 2.58977 16.6098 2.78977C15.9498 1.72977 14.7798 1.00977 13.4398 1.00977C11.9998 1.00977 10.7698 1.82977 10.1398 3.00977C9.65982 2.78977 9.13982 2.65977 8.56982 2.65977C6.62982 2.65977 5.05982 4.13977 4.85982 6.01977C4.83982 6.01977 4.82982 6.01977 4.80982 6.01977C2.73982 6.01977 1.06982 7.69977 1.06982 9.75977" stroke="#6C69FF" stroke-width="2" stroke-linecap="round" stroke-linejoin="round"/>
<path d="M8.74014 7.70996L7.64014 8.80996" stroke="#6C69FF" stroke-width="1.3" stroke-linecap="round" stroke-linejoin="round"/>
<path d="M18.9398 7.70996L17.8398 8.80996" stroke="#6C69FF" stroke-width="1.3" stroke-linecap="round" stroke-linejoin="round"/>
<path d="M14.19 5.99L13 5" stroke="#6C69FF" stroke-width="1.3" stroke-linecap="round" stroke-linejoin="round"/>
</g>
<defs>
<clipPath id="clip0_2020_12224">
<rect width="26" height="25.25" fill="white"/>
</clipPath>
</defs>
</svg>
