<svg width="44" height="44" viewBox="0 0 44 44" fill="none" xmlns="http://www.w3.org/2000/svg">
<path fill-rule="evenodd" clip-rule="evenodd" d="M21.9997 31.3827C21.4162 31.3827 20.8566 31.1509 20.444 30.7383C20.0315 30.3257 19.7997 29.7661 19.7997 29.1827C19.7997 28.5992 20.0315 28.0396 20.444 27.627C20.8566 27.2145 21.4162 26.9827 21.9997 26.9827C22.5831 26.9827 23.1427 27.2145 23.5553 27.627C23.9679 28.0396 24.1997 28.5992 24.1997 29.1827C24.1997 29.7661 23.9679 30.3257 23.5553 30.7383C23.1427 31.1509 22.5831 31.3827 21.9997 31.3827ZM20.1663 13.3518C20.1663 12.8656 20.3595 12.3993 20.7033 12.0555C21.0471 11.7117 21.5134 11.5185 21.9997 11.5185C22.4859 11.5185 22.9522 11.7117 23.296 12.0555C23.6399 12.3993 23.833 12.8656 23.833 13.3518V22.5185C23.833 23.0047 23.6399 23.4711 23.296 23.8149C22.9522 24.1587 22.4859 24.3518 21.9997 24.3518C21.5134 24.3518 21.0471 24.1587 20.7033 23.8149C20.3595 23.4711 20.1663 23.0047 20.1663 22.5185V13.3518ZM21.9997 1.83301C10.8622 1.83301 1.83301 10.8622 1.83301 21.9997C1.83301 33.139 10.8622 42.1663 21.9997 42.1663C33.1372 42.1663 42.1663 33.139 42.1663 21.9997C42.1663 10.8622 33.1372 1.83301 21.9997 1.83301Z" fill="#FF5E5E"/>
</svg>
