<svg width="24" height="24" viewBox="0 0 24 24" fill="none" xmlns="http://www.w3.org/2000/svg">
<g clip-path="url(#clip0_2020_7539)">
<path d="M0.78418 8.70459H22.5965" stroke="#6C69FF" stroke-width="2" stroke-linejoin="round"/>
<path d="M17.5382 3.31396H6.46131C3.40251 3.31396 0.922852 5.79362 0.922852 8.85243V17.5386C0.922852 20.5974 3.40251 23.077 6.46131 23.077H17.5382C20.597 23.077 23.0767 20.5974 23.0767 17.5386V8.85243C23.0767 5.79362 20.597 3.31396 17.5382 3.31396Z" stroke="#6C69FF" stroke-width="2" stroke-linejoin="round"/>
<path d="M7.1543 0.922852V5.27054" stroke="#6C69FF" stroke-width="2" stroke-linecap="round" stroke-linejoin="round"/>
<path d="M17.2617 0.922852V5.27054" stroke="#6C69FF" stroke-width="2" stroke-linecap="round" stroke-linejoin="round"/>
<path d="M6.70116 11.8062H6.07347C5.56367 11.8062 5.15039 12.2194 5.15039 12.7292V13.3569C5.15039 13.8667 5.56367 14.28 6.07347 14.28H6.70116C7.21096 14.28 7.62424 13.8667 7.62424 13.3569V12.7292C7.62424 12.2194 7.21096 11.8062 6.70116 11.8062Z" fill="#6C69FF"/>
<path d="M12.1572 11.8062H11.5295C11.0197 11.8062 10.6064 12.2194 10.6064 12.7292V13.3569C10.6064 13.8667 11.0197 14.28 11.5295 14.28H12.1572C12.667 14.28 13.0803 13.8667 13.0803 13.3569V12.7292C13.0803 12.2194 12.667 11.8062 12.1572 11.8062Z" fill="#6C69FF"/>
<path d="M17.6123 11.8062H16.9846C16.4748 11.8062 16.0615 12.2194 16.0615 12.7292V13.3569C16.0615 13.8667 16.4748 14.28 16.9846 14.28H17.6123C18.1221 14.28 18.5354 13.8667 18.5354 13.3569V12.7292C18.5354 12.2194 18.1221 11.8062 17.6123 11.8062Z" fill="#6C69FF"/>
<path d="M6.70116 16.9199H6.07347C5.56367 16.9199 5.15039 17.3332 5.15039 17.843V18.4707C5.15039 18.9805 5.56367 19.3938 6.07347 19.3938H6.70116C7.21096 19.3938 7.62424 18.9805 7.62424 18.4707V17.843C7.62424 17.3332 7.21096 16.9199 6.70116 16.9199Z" fill="#6C69FF"/>
<path d="M12.1572 16.9199H11.5295C11.0197 16.9199 10.6064 17.3332 10.6064 17.843V18.4707C10.6064 18.9805 11.0197 19.3938 11.5295 19.3938H12.1572C12.667 19.3938 13.0803 18.9805 13.0803 18.4707V17.843C13.0803 17.3332 12.667 16.9199 12.1572 16.9199Z" fill="#6C69FF"/>
<path d="M17.6123 16.9199H16.9846C16.4748 16.9199 16.0615 17.3332 16.0615 17.843V18.4707C16.0615 18.9805 16.4748 19.3938 16.9846 19.3938H17.6123C18.1221 19.3938 18.5354 18.9805 18.5354 18.4707V17.843C18.5354 17.3332 18.1221 16.9199 17.6123 16.9199Z" fill="#6C69FF"/>
</g>
<defs>
<clipPath id="clip0_2020_7539">
<rect width="24" height="24" fill="white"/>
</clipPath>
</defs>
</svg>
