<svg width="24" height="24" viewBox="0 0 24 24" fill="none" xmlns="http://www.w3.org/2000/svg">
<g id="icon-exclamation-circle-mono">
<path id="Vector" fill-rule="evenodd" clip-rule="evenodd" d="M12 16.8176C11.6817 16.8176 11.3765 16.6934 11.1515 16.4723C10.9264 16.2512 10.8 15.9514 10.8 15.6387C10.8 15.326 10.9264 15.0262 11.1515 14.8051C11.3765 14.584 11.6817 14.4598 12 14.4598C12.3183 14.4598 12.6235 14.584 12.8485 14.8051C13.0736 15.0262 13.2 15.326 13.2 15.6387C13.2 15.9514 13.0736 16.2512 12.8485 16.4723C12.6235 16.6934 12.3183 16.8176 12 16.8176ZM11 7.15519C11 6.89463 11.1054 6.64474 11.2929 6.46049C11.4804 6.27625 11.7348 6.17274 12 6.17274C12.2652 6.17274 12.5196 6.27625 12.7071 6.46049C12.8946 6.64474 13 6.89463 13 7.15519V12.0675C13 12.328 12.8946 12.5779 12.7071 12.7622C12.5196 12.9464 12.2652 13.0499 12 13.0499C11.7348 13.0499 11.4804 12.9464 11.2929 12.7622C11.1054 12.5779 11 12.328 11 12.0675V7.15519ZM12 0.982422C5.925 0.982422 1 5.82102 1 11.7894C1 17.7588 5.925 22.5965 12 22.5965C18.075 22.5965 23 17.7588 23 11.7894C23 5.82102 18.075 0.982422 12 0.982422Z" fill="#BBBAFF"/>
</g>
</svg>
