<svg width="28" height="36" viewBox="0 0 28 36" fill="none" xmlns="http://www.w3.org/2000/svg">
<g clip-path="url(#clip0_4658_13065)">
<path d="M14 35.2088C5.4964 35.2088 0 29.9138 0 21.7124C0 18.6188 1.10791 15.626 3.1223 13.2232C3.10791 13.1656 3.07914 13.0937 3.06475 13.0361C2.61871 11.6692 2.23022 10.475 2.18705 9.71237C2.07194 7.97136 2.76259 6.24474 4.18705 4.73395C6.41727 2.33107 10.2734 0.791504 14 0.791504C20.4029 0.791504 25.813 4.61884 25.813 9.15122C25.813 9.92819 25.4389 11.3383 24.8777 13.2088C26.9065 15.6116 28 18.6045 28 21.7124C28 30.1728 22.7626 35.2088 14 35.2088ZM14 2.94978C10.8489 2.94978 7.59712 4.23035 5.74101 6.20158C5.05036 6.94978 4.23022 8.12963 4.33094 9.56848C4.35971 10.1152 4.83453 11.5109 5.10791 12.3455C5.20863 12.662 5.30935 12.9498 5.36691 13.1512C5.48201 13.5109 5.3813 13.9138 5.1223 14.1872C3.20863 16.2735 2.15827 18.9354 2.15827 21.698C2.15827 27.18 5.26619 33.0361 14 33.0361C21.5252 33.0361 25.8417 28.9066 25.8417 21.698C25.8417 18.9354 24.7914 16.2735 22.8777 14.1872C22.6187 13.8994 22.5324 13.5109 22.6331 13.1512L22.7194 12.8778C22.9496 12.1152 23.6547 9.81309 23.6547 9.15122C23.6547 5.89942 19.0504 2.94978 14 2.94978ZM19.2806 12.4606C19.2806 12.4606 19.1799 12.4606 19.1367 12.4606C17.036 12.1728 16.1007 12.1296 14 12.1296H13.3957C11.6403 12.1296 10.3453 12.1296 8.93525 12.2735C8.41727 12.3311 7.92806 11.9857 7.78417 11.4822C7.32374 9.78431 7.46763 8.48935 8.20144 7.51093C9.13669 6.27352 10.8777 5.68359 13.7122 5.65481C17.0504 5.59726 19.0935 6.21596 20.0576 7.55409C20.8058 8.57568 20.8921 9.94258 20.3022 11.7411C20.1583 12.1872 19.741 12.4893 19.2806 12.4893V12.4606ZM12.8489 9.95697C13.0216 9.95697 13.2086 9.95697 13.3813 9.95697H13.9856C15.8273 9.95697 16.8489 9.98575 18.4748 10.1872C18.5899 9.55409 18.5324 9.10805 18.3165 8.80589C17.9712 8.33107 16.8921 7.75553 13.7266 7.7987C11.1799 7.82748 10.2446 8.35985 9.91367 8.7915C9.69784 9.06489 9.6259 9.48215 9.68345 10.0289C10.6906 9.97136 11.6978 9.95697 12.8489 9.95697Z" fill="#6C69FF"/>
<path d="M10.4457 18.6765C10.5896 18.6765 10.7191 18.7197 10.8198 18.7916C10.9205 18.8636 10.9781 18.9787 10.9781 19.137V21.4247L13.4097 18.806C13.5105 18.7053 13.6112 18.6621 13.7407 18.6765C13.8702 18.6765 13.9853 18.7341 14.0716 18.8348C14.1723 18.9355 14.2155 19.0362 14.2299 19.1657C14.2299 19.2952 14.2011 19.3959 14.1148 19.4967L12.2731 21.4103L14.3162 23.842C14.4313 23.9715 14.4745 24.101 14.4457 24.2305C14.4313 24.36 14.3594 24.4751 14.2443 24.5614C14.1292 24.6477 14.0141 24.6909 13.8846 24.7053C13.7551 24.7197 13.64 24.6477 13.5392 24.5183L11.5968 22.101L10.9925 22.7197V24.2449C10.9925 24.4031 10.9349 24.5183 10.8342 24.5902C10.7335 24.6621 10.604 24.7053 10.4601 24.7053C10.3162 24.7053 10.1867 24.6621 10.086 24.5902C9.98529 24.5183 9.92773 24.4031 9.92773 24.2449V19.1513C9.92773 18.9931 9.98529 18.878 10.086 18.806C10.1867 18.7341 10.3162 18.6909 10.4601 18.6909L10.4457 18.6765Z" fill="#BBBAFF"/>
<path d="M13.8558 24.8634C13.7263 24.8634 13.5393 24.8202 13.381 24.6044L11.568 22.3454L11.1508 22.7627V24.2159C11.1508 24.4893 11.0213 24.6332 10.9062 24.7195C10.6328 24.9066 10.2299 24.9066 9.95652 24.7195C9.84141 24.6476 9.71191 24.5037 9.71191 24.2159V19.1224C9.71191 18.849 9.84141 18.7051 9.94213 18.6188C10.2155 18.4318 10.6184 18.4318 10.8918 18.6188C11.0069 18.6907 11.1364 18.849 11.1364 19.1224V20.9641L13.2659 18.6764C13.3954 18.5325 13.568 18.4749 13.7407 18.4893C13.9134 18.5037 14.0716 18.5756 14.1867 18.7051C14.3018 18.8202 14.3738 18.9785 14.4026 19.1368C14.417 19.3095 14.3594 19.4821 14.2299 19.6116L12.5033 21.4102L14.4313 23.7123C14.6184 23.9282 14.6184 24.1152 14.604 24.2447C14.5752 24.4174 14.4889 24.5612 14.3306 24.6907C14.1867 24.8059 14.0285 24.8634 13.8558 24.8634ZM11.5968 21.813L13.6687 24.3886C13.7551 24.5037 13.8414 24.5181 13.8702 24.5037C13.9565 24.5037 14.0428 24.4749 14.1292 24.403C14.2155 24.331 14.2587 24.2591 14.2731 24.1871C14.2731 24.1584 14.2875 24.072 14.1867 23.9569L12.0428 21.3958L13.9997 19.3526C13.9997 19.3526 14.0716 19.2375 14.0716 19.1656C14.0716 19.0792 14.0285 19.0073 13.9565 18.9497C13.899 18.8778 13.827 18.849 13.7407 18.849C13.6687 18.8346 13.6112 18.8634 13.5536 18.921L10.8054 21.8706V19.1224C10.8054 18.9929 10.7623 18.9497 10.7191 18.921C10.5752 18.8202 10.3306 18.8202 10.1723 18.921C10.1436 18.9497 10.086 18.9929 10.086 19.1224V24.2159C10.086 24.3454 10.1292 24.3886 10.1723 24.4174C10.3306 24.5181 10.5608 24.5181 10.7191 24.4174C10.7479 24.3886 10.8054 24.3454 10.8054 24.2159V22.6188L11.6112 21.7987L11.5968 21.813Z" fill="#BBBAFF"/>
<path d="M16.7338 20.115C16.9065 20.115 17.0648 20.1294 17.2087 20.1725C17.3526 20.2013 17.4677 20.2445 17.5684 20.302C17.6691 20.3596 17.7554 20.4027 17.8274 20.4603C17.8993 20.5179 17.9425 20.5754 17.9713 20.6186V20.5898C17.9713 20.4459 18.0288 20.3452 18.1295 20.2732C18.2303 20.2013 18.3454 20.1725 18.4892 20.1725C18.6187 20.1725 18.7338 20.2013 18.8346 20.2732C18.9353 20.3452 18.9928 20.4459 18.9928 20.5898V24.5035C18.9928 25.1366 18.8202 25.6114 18.4749 25.9279C18.1295 26.2445 17.5684 26.4027 16.8202 26.4027C16.5756 26.4027 16.3454 26.374 16.1008 26.302C15.8705 26.2445 15.6691 26.1581 15.5252 26.0718C15.4101 26.0143 15.3526 25.9135 15.3382 25.7984C15.3238 25.6833 15.3382 25.5538 15.4101 25.4531C15.482 25.338 15.554 25.2661 15.6547 25.2229C15.7554 25.1797 15.8561 25.1941 15.9856 25.2517C16.1008 25.3092 16.2303 25.3668 16.3885 25.4243C16.5468 25.4819 16.7051 25.4963 16.849 25.4963C17.2231 25.4963 17.4964 25.4243 17.6979 25.2661C17.8993 25.1078 17.9856 24.8488 17.9856 24.5035V23.9855H17.9713C17.8562 24.2013 17.6691 24.3596 17.4533 24.4459C17.2231 24.5322 16.9785 24.5754 16.6907 24.5754C16.1151 24.5754 15.6691 24.3884 15.3669 24.0286C15.0648 23.6689 14.9209 23.1366 14.9209 22.4315V22.2589C14.9209 21.5538 15.0936 21.0071 15.4245 20.6473C15.7554 20.2876 16.2015 20.1006 16.7626 20.1006L16.7338 20.115ZM16.9065 21.0071C16.5756 21.0071 16.331 21.1222 16.1727 21.338C16.0144 21.5538 15.9281 21.8704 15.9281 22.2876V22.4027C15.9281 22.8344 16 23.1509 16.1439 23.3668C16.2878 23.5826 16.5324 23.6833 16.849 23.6833C17.0216 23.6833 17.1799 23.6545 17.3094 23.597C17.4389 23.5394 17.554 23.4531 17.6547 23.3524C17.7554 23.2517 17.813 23.1366 17.8705 22.9927C17.9137 22.8632 17.9425 22.7049 17.9425 22.561V21.9135C17.9425 21.8128 17.9281 21.6977 17.8849 21.597C17.8418 21.4819 17.7842 21.3956 17.6979 21.3092C17.6115 21.2229 17.5108 21.1509 17.3813 21.0934C17.2518 21.0358 17.0936 21.0071 16.9065 21.0071Z" fill="#BBBAFF"/>
<path d="M16.8055 26.5899C16.5465 26.5899 16.2876 26.5611 16.0429 26.4892C15.7983 26.4172 15.5825 26.3309 15.4242 26.2446C15.266 26.1582 15.1653 26.0144 15.1365 25.8273C15.1077 25.669 15.1365 25.5108 15.2228 25.3669C15.3091 25.223 15.4242 25.1079 15.5537 25.0647C15.6976 25.0072 15.8559 25.0216 16.0286 25.1079C16.1437 25.1654 16.2588 25.223 16.4027 25.2662C16.5465 25.3093 16.676 25.3381 16.8055 25.3381C17.1365 25.3381 17.3811 25.2805 17.5394 25.151C17.6832 25.0359 17.7552 24.8201 17.7552 24.5323V24.4892C17.6688 24.5611 17.5681 24.6187 17.453 24.6618C17.2084 24.7626 16.935 24.8057 16.6329 24.8057C15.9998 24.8057 15.5106 24.6043 15.1796 24.187C14.8631 23.7841 14.6904 23.223 14.6904 22.4748V22.3021C14.6904 21.5539 14.8775 20.964 15.2372 20.5755C15.6113 20.1726 16.1005 19.9712 16.7048 19.9712C16.8919 19.9712 17.0645 19.9856 17.2228 20.0287C17.3667 20.0575 17.5106 20.1007 17.6257 20.1582C17.7264 20.2014 17.7983 20.259 17.8703 20.3021C17.9135 20.2302 17.971 20.187 18.0142 20.1439C18.2732 19.9712 18.6473 19.9568 18.9063 20.1439C19.007 20.2158 19.1365 20.3597 19.1365 20.6187V24.5323C19.1365 25.223 18.935 25.741 18.5465 26.0863C18.1581 26.4316 17.5681 26.6043 16.7768 26.6043L16.8055 26.5899ZM15.7408 25.3813C15.7408 25.3813 15.712 25.3813 15.6832 25.3813C15.6257 25.41 15.5825 25.4532 15.525 25.5395C15.4818 25.6115 15.4674 25.6834 15.4818 25.7698C15.4818 25.8417 15.525 25.8849 15.5825 25.9136C15.7264 26 15.9135 26.0719 16.1293 26.1295C16.3451 26.187 16.5753 26.2158 16.7911 26.2158C17.4962 26.2158 18.0142 26.0719 18.3307 25.7985C18.6329 25.5251 18.7911 25.0935 18.7911 24.5036V20.5899C18.7911 20.4892 18.748 20.446 18.7192 20.4172C18.5753 20.3165 18.3595 20.3309 18.2156 20.4172C18.1868 20.446 18.1437 20.4748 18.1437 20.5899V20.7626L17.8703 20.7913L17.8127 20.7194C17.8127 20.7194 17.7552 20.6475 17.6976 20.5899C17.6401 20.5467 17.5681 20.5036 17.4818 20.446C17.3955 20.3885 17.2804 20.3597 17.1653 20.3309C17.0358 20.3021 16.8919 20.2877 16.7336 20.2877C16.23 20.2877 15.8271 20.446 15.525 20.7769C15.2228 21.1079 15.0645 21.6115 15.0645 22.259V22.4316C15.0645 23.0791 15.194 23.5827 15.4674 23.9136C15.7264 24.2446 16.1149 24.4028 16.6473 24.4028C16.9063 24.4028 17.1365 24.3597 17.3379 24.2877C17.525 24.2158 17.6688 24.0863 17.7696 23.8992L17.8271 23.8129H18.1149V23.9856L18.1293 24.5036C18.1293 24.9208 18.0142 25.223 17.7696 25.41C17.5394 25.5971 17.2228 25.6834 16.8055 25.6834C16.6329 25.6834 16.4602 25.6546 16.2876 25.5971C16.1149 25.5395 15.971 25.482 15.8559 25.4244C15.8127 25.41 15.7696 25.3957 15.7264 25.3957L15.7408 25.3813ZM16.8631 23.8705C16.4746 23.8705 16.1868 23.741 15.9998 23.482C15.8271 23.2374 15.7408 22.8921 15.7408 22.4172V22.3021C15.7408 21.8561 15.8271 21.4964 16.0142 21.2518C16.2012 20.9784 16.5034 20.8489 16.8919 20.8489C17.0933 20.8489 17.2804 20.8777 17.4386 20.9496C17.5969 21.0216 17.7264 21.0935 17.8271 21.1942C17.9278 21.2949 17.9998 21.41 18.0573 21.5539C18.1005 21.6834 18.1293 21.8129 18.1293 21.9424V22.5899C18.1293 22.7626 18.1005 22.9352 18.0429 23.0935C17.9854 23.2518 17.8991 23.3957 17.7983 23.5108C17.6832 23.6259 17.5537 23.7266 17.3955 23.7985C17.2372 23.8705 17.0501 23.8992 16.8631 23.8992V23.8705ZM16.9063 21.1942C16.6329 21.1942 16.4458 21.2805 16.3163 21.4532C16.1868 21.6403 16.1149 21.928 16.1149 22.3021V22.4172C16.1149 22.8057 16.1724 23.1079 16.3019 23.2805C16.417 23.4388 16.6041 23.5251 16.8631 23.5251C17.007 23.5251 17.1365 23.4964 17.2516 23.4532C17.3667 23.41 17.453 23.3381 17.525 23.2518C17.5969 23.1654 17.6545 23.0647 17.6976 22.9496C17.7408 22.8345 17.7552 22.705 17.7552 22.5755V21.928C17.7552 21.8417 17.7408 21.7554 17.6976 21.669C17.6688 21.5827 17.6113 21.5108 17.5537 21.4388C17.4818 21.3669 17.3955 21.3093 17.2804 21.2662C17.1796 21.223 17.0358 21.1942 16.8775 21.1942H16.9063Z" fill="#BBBAFF"/>
</g>
<defs>
<clipPath id="clip0_4658_13065">
<rect width="28" height="34.4173" fill="white" transform="translate(0 0.791504)"/>
</clipPath>
</defs>
</svg>
