
<svg width="16" height="16" viewBox="0 0 16 16" fill="none" xmlns="http://www.w3.org/2000/svg">
<path fill-rule="evenodd" clip-rule="evenodd" d="M0 2.4C0 1.07452 1.07452 0 2.4 0H13.6C14.9255 0 16 1.07452 16 2.4V13.6C16 14.9255 14.9255 16 13.6 16H2.4C1.07452 16 0 14.9255 0 13.6V2.4ZM4.4 6.4C5.50457 6.4 6.4 5.50457 6.4 4.4C6.4 3.29543 5.50457 2.4 4.4 2.4C3.29543 2.4 2.4 3.29543 2.4 4.4C2.4 5.50457 3.29543 6.4 4.4 6.4ZM6.68284 9.08284L8.4 10.8L12.9172 6.28284C13.1691 6.03086 13.6 6.20932 13.6 6.56569V13.6H2.4V12.8L6.11716 9.08284C6.27337 8.92663 6.52663 8.92663 6.68284 9.08284Z" fill="#CCCCCC"/>
</svg>
