<svg width="21" height="13" viewBox="0 0 21 13" fill="none" xmlns="http://www.w3.org/2000/svg">
<path d="M19.6425 1.625H18.75V1.47063C18.75 1.08059 18.607 0.706532 18.3524 0.430736C18.0978 0.154941 17.7525 0 17.3925 0H15.6075C15.2475 0 14.9022 0.154941 14.6476 0.430736C14.393 0.706532 14.25 1.08059 14.25 1.47063V4.0625H6.75V1.47063C6.75 1.08059 6.60698 0.706532 6.3524 0.430736C6.09782 0.154941 5.75253 0 5.3925 0H3.6075C3.24747 0 2.90218 0.154941 2.6476 0.430736C2.39302 0.706532 2.25 1.08059 2.25 1.47063V1.625H1.3575C0.997469 1.625 0.652183 1.77994 0.397603 2.05574C0.143022 2.33153 0 2.70559 0 3.09563V9.90438C0 10.2944 0.143022 10.6685 0.397603 10.9443C0.652183 11.2201 0.997469 11.375 1.3575 11.375H2.25V11.5294C2.25 11.9194 2.39302 12.2935 2.6476 12.5693C2.90218 12.8451 3.24747 13 3.6075 13H5.3925C5.75253 13 6.09782 12.8451 6.3524 12.5693C6.60698 12.2935 6.75 11.9194 6.75 11.5294V8.9375H14.25V11.5294C14.25 11.9194 14.393 12.2935 14.6476 12.5693C14.9022 12.8451 15.2475 13 15.6075 13H17.3925C17.5708 13 17.7473 12.962 17.912 12.8881C18.0767 12.8141 18.2263 12.7058 18.3524 12.5693C18.4785 12.4327 18.5784 12.2706 18.6467 12.0922C18.7149 11.9137 18.75 11.7225 18.75 11.5294V11.375H19.6425C20.0025 11.375 20.3478 11.2201 20.6024 10.9443C20.857 10.6685 21 10.2944 21 9.90438V3.09563C21 2.70559 20.857 2.33153 20.6024 2.05574C20.3478 1.77994 20.0025 1.625 19.6425 1.625ZM1.5 9.75V3.25H2.25V9.75H1.5ZM5.25 11.375H3.75V1.625H5.25V11.375ZM6.75 7.3125V5.6875H14.25V7.3125H6.75ZM17.25 11.375H15.75V1.625H17.25V11.375ZM19.5 9.75H18.75V3.25H19.5V9.75Z" fill="#222222"/>
</svg>
