<svg width="20" height="20" viewBox="0 0 20 20" fill="none" xmlns="http://www.w3.org/2000/svg">
<g clip-path="url(#clip0_2019_50486)">
<path d="M6.53955 0.9013C6.53955 0.9013 9.60179 0.82756 10.0665 3.68704L6.53955 0.9013Z" fill="#6C69FF"/>
<path d="M6.53955 0.9013C6.53955 0.9013 9.60179 0.82756 10.0665 3.68704" stroke="#6C69FF" stroke-width="1.5" stroke-linecap="round" stroke-linejoin="round"/>
<path d="M12.5125 2.68061C12.0905 3.05031 11.5095 3.09652 11.0509 2.83245C10.9102 2.29772 11.0631 1.69037 11.4851 1.32067C11.907 0.950983 12.488 0.904771 12.9466 1.16224C13.0934 1.70357 12.9344 2.30432 12.5063 2.68061H12.5125Z" fill="#6C69FF" stroke="#6C69FF" stroke-linecap="round" stroke-linejoin="round"/>
<path d="M18.9893 11.9089C18.7662 15.7049 15.421 18.9771 12.3226 18.9543C11.5819 18.9543 10.7775 18.6278 10.204 18.309C9.63051 18.7493 8.9296 19.0074 8.06143 18.9998C4.95512 18.9771 1.35499 15.796 1.02842 12C0.677969 7.96102 3.62498 4.97735 6.73129 5.00013C7.91009 5.00772 9.00925 5.46324 9.90132 6.23763C10.8093 5.47843 11.9164 5.03809 13.1032 5.04568C16.2095 5.06846 19.268 6.90573 18.9813 11.9089H18.9893Z" stroke="#6C69FF" stroke-width="1.5" stroke-linecap="round" stroke-linejoin="round"/>
<path d="M16.5062 11C16.5062 11 17.3195 14.1954 14 16.17" stroke="#6C69FF" stroke-width="1.5" stroke-linecap="round" stroke-linejoin="round"/>
</g>
<defs>
<clipPath id="clip0_2019_50486">
<rect width="20" height="20" fill="white"/>
</clipPath>
</defs>
</svg>
