<svg width="16" height="16" viewBox="0 0 16 16" fill="none" xmlns="http://www.w3.org/2000/svg">
<path d="M13.3332 15.6665C13.952 15.6665 14.5455 15.4207 14.9831 14.9831C15.4207 14.5455 15.6665 13.952 15.6665 13.3332L15.6665 7.33317C15.6665 6.71433 15.4207 6.12084 14.9831 5.68326C14.5455 5.24567 13.952 4.99984 13.3332 4.99984L11.9998 4.99984L11.9998 9.99984C11.9998 11.1044 11.1044 11.9998 9.99984 11.9998L4.99984 11.9998L4.99984 13.3332C4.99984 13.952 5.24567 14.5455 5.68325 14.9831C6.12084 15.4207 6.71433 15.6665 7.33317 15.6665L13.3332 15.6665Z" fill="white"/>
<path d="M10.6665 8.7915C10.6665 9.82704 9.82704 10.6665 8.7915 10.6665L2.5415 10.6665C1.50597 10.6665 0.666503 9.82704 0.666503 8.7915L0.666503 2.5415C0.666503 1.50597 1.50597 0.666504 2.5415 0.666504L8.7915 0.666504C9.82704 0.666504 10.6665 1.50597 10.6665 2.5415L10.6665 8.7915Z" fill="white"/>
</svg>
