<svg width="26" height="13" viewBox="0 0 26 13" fill="none" xmlns="http://www.w3.org/2000/svg">
<g clip-path="url(#clip0_2019_50467)">
<path d="M17.7099 5.05005H8.41992V7.88005H17.7099V5.05005Z" stroke="#6C69FF" stroke-width="1.5" stroke-miterlimit="10"/>
<path d="M8.41994 3.54V9.45C8.41994 10.86 7.52994 12 6.43994 12H6.17994C5.17994 12 4.34994 11.05 4.20994 9.81C4.19994 9.69 4.18994 9.57 4.18994 9.45V3.54C4.18994 3.47 4.18994 3.4 4.19994 3.33C4.27994 2.02 5.13994 1 6.17994 1H6.43994C7.52994 1 8.41994 2.13 8.41994 3.54Z" stroke="#6C69F8" stroke-width="1.5" stroke-miterlimit="10"/>
<path d="M21.94 3.54V9.45C21.94 9.57 21.93 9.69 21.92 9.8C21.79 11.04 20.96 12 19.95 12H19.7C18.59 12 17.71 10.86 17.71 9.45V3.54C17.71 2.13 18.59 1 19.7 1H19.95C21 1 21.85 2.02 21.93 3.34C21.94 3.41 21.94 3.47 21.94 3.54Z" stroke="#6C69F8" stroke-width="1.5" stroke-miterlimit="10"/>
<path d="M4.21 9.80996C2.43 9.78996 1 8.34996 1 6.56996C1 4.78996 2.43 3.34996 4.2 3.32996C4.19 3.39996 4.19 3.46996 4.19 3.53996V9.44996C4.19 9.56996 4.2 9.68996 4.21 9.80996Z" stroke="#6C69F8" stroke-width="1.5" stroke-miterlimit="10"/>
<path d="M24.9999 6.56997C24.9999 8.30997 23.6399 9.71997 21.9199 9.79997C21.9299 9.68997 21.9399 9.56997 21.9399 9.44997V3.53997C21.9399 3.46997 21.9399 3.40997 21.9299 3.33997C23.6399 3.41997 24.9999 4.83997 24.9999 6.56997Z" stroke="#6C69F8" stroke-width="1.5" stroke-miterlimit="10"/>
</g>
<defs>
<clipPath id="clip0_2019_50467">
<rect width="26" height="13" fill="white"/>
</clipPath>
</defs>
</svg>
