<svg width="22" height="23" viewBox="0 0 22 23" fill="none" xmlns="http://www.w3.org/2000/svg">
<path fill-rule="evenodd" clip-rule="evenodd" d="M3.58301 7.41667C3.58301 3.32056 6.90356 0 10.9997 0C15.0958 0 18.4163 3.32056 18.4163 7.41667V8.33334C18.4163 10.5339 18.7151 12.4847 19.1705 13.8507C19.3999 14.539 19.651 15.0238 19.8813 15.316C20.0518 15.5324 20.1536 15.5761 20.1769 15.5834C20.7243 15.5891 21.1663 16.0346 21.1663 16.5833V16.7917C21.1663 17.344 20.7186 17.7917 20.1663 17.7917H1.83301C1.28072 17.7917 0.833008 17.344 0.833008 16.7917V16.5833C0.833008 16.0346 1.27502 15.5891 1.82243 15.5834C1.84578 15.5761 1.94752 15.5324 2.11802 15.316C2.34832 15.0238 2.59945 14.539 2.82887 13.8507C3.28421 12.4847 3.58301 10.5339 3.58301 8.33334V7.41667ZM1.81725 15.5847C1.81724 15.5846 1.81814 15.5844 1.81995 15.5841L1.81838 15.5845C1.81763 15.5847 1.81725 15.5847 1.81725 15.5847Z" fill="#DADADA"/>
<path d="M8.24964 19.5C7.87209 19.5 7.52673 19.7126 7.35674 20.0497C7.18675 20.3869 7.22111 20.791 7.44557 21.0945C8.27769 22.2199 9.53475 23 10.9996 23C12.4645 23 13.7216 22.2199 14.5537 21.0945C14.7782 20.791 14.8125 20.3869 14.6425 20.0497C14.4725 19.7126 14.1272 19.5 13.7496 19.5H8.24964Z" fill="#DADADA"/>
</svg>
