<svg width="21" height="23" viewBox="0 0 21 23" fill="none" xmlns="http://www.w3.org/2000/svg">
<g clip-path="url(#clip0_2019_50284)">
<path d="M14.5337 18.1099C14.5337 20.3331 12.7274 22.1394 10.5042 22.1394C8.28096 22.1394 6.47461 20.3331 6.47461 18.1099" fill="#BBBAFF"/>
<path d="M18.9252 8.37406V16.7481C18.8696 16.7481 18.8141 16.7481 18.7585 16.7481H2.2512C2.19562 16.7481 2.13078 16.7481 2.0752 16.7481V8.37406C2.08446 3.75165 5.85464 0 10.5048 0C12.8299 0 14.9327 0.935598 16.4519 2.45479C17.9711 3.97397 18.9252 6.06749 18.9252 8.37406Z" fill="#6C69FF"/>
<path d="M17.8875 12.4221H3.11248C1.39351 12.4221 0 13.8136 0 15.53C0 17.2464 1.39351 18.6378 3.11248 18.6378H17.8875C19.6065 18.6378 21 17.2464 21 15.53C21 13.8136 19.6065 12.4221 17.8875 12.4221Z" fill="#6C69FF"/>
</g>
<defs>
<clipPath id="clip0_2019_50284">
<rect width="21" height="22.1394" fill="white"/>
</clipPath>
</defs>
</svg>
